REM DIRINDEX 1\2\6,1\2\7,1\2\8,1\2\9,1\3\10,1\3\11,1\4\12,1\4\13,1\4\14,1\5\15,1\5\16,1\5\17
REM DIRNAME folder01,folder02,folder03,folder04,folder05,folder06,folder07,folder08,folder09,folder10,folder11,folder12,folder13,folder14,folder15,folder16,folder17
TITLE ""
FILE "1400_3_sec06_0585_0600.mp3" MP3
  TRACK 01 AUDIO
    TITLE "0:"
    INDEX 01 00:00:00
  TRACK 02 AUDIO
    TITLE "17:cjc029_5601"
    INDEX 01 00:00:15
  TRACK 03 AUDIO
    TITLE "0:"
    INDEX 01 00:01:30
  TRACK 04 AUDIO
    TITLE "16:cjc029_5602"
    INDEX 01 00:01:40
  TRACK 05 AUDIO
    TITLE "0:"
    INDEX 01 00:02:43
  TRACK 06 AUDIO
    TITLE "17:cjc029_5603"
    INDEX 01 00:03:29
  TRACK 07 AUDIO
    TITLE "0:"
    INDEX 01 00:04:27
  TRACK 08 AUDIO
    TITLE "16:cjc029_5604"
    INDEX 01 00:04:35
  TRACK 09 AUDIO
    TITLE "0:"
    INDEX 01 00:05:42
  TRACK 10 AUDIO
    TITLE "17:cjc029_5605"
    INDEX 01 00:06:26
  TRACK 11 AUDIO
    TITLE "0:"
    INDEX 01 00:07:39
  TRACK 12 AUDIO
    TITLE "16:cjc029_5606"
    INDEX 01 00:07:47
  TRACK 13 AUDIO
    TITLE "0:"
    INDEX 01 00:08:54
  TRACK 14 AUDIO
    TITLE "17:cjc029_5607"
    INDEX 01 00:09:40
  TRACK 15 AUDIO
    TITLE "0:"
    INDEX 01 00:10:66
  TRACK 16 AUDIO
    TITLE "16:cjc029_5608"
    INDEX 01 00:11:05
  TRACK 17 AUDIO
    TITLE "0:"
    INDEX 01 00:12:09
  TRACK 18 AUDIO
    TITLE "17:cjc029_5609"
    INDEX 01 00:12:65
  TRACK 19 AUDIO
    TITLE "0:"
    INDEX 01 00:14:07
  TRACK 20 AUDIO
    TITLE "16:cjc029_5610"
    INDEX 01 00:14:19
  TRACK 21 AUDIO
    TITLE "0:"
    INDEX 01 00:15:48
  TRACK 22 AUDIO
    TITLE "17:cjc029_5611"
    INDEX 01 00:16:34
  TRACK 23 AUDIO
    TITLE "0:"
    INDEX 01 00:17:45
  TRACK 24 AUDIO
    TITLE "16:cjc029_5612"
    INDEX 01 00:17:51
  TRACK 25 AUDIO
    TITLE "0:"
    INDEX 01 00:19:03
  TRACK 26 AUDIO
    TITLE "17:cjc029_5613"
    INDEX 01 00:19:65
  TRACK 27 AUDIO
    TITLE "0:"
    INDEX 01 00:21:15
  TRACK 28 AUDIO
    TITLE "16:cjc029_5614"
    INDEX 01 00:21:27
  TRACK 29 AUDIO
    TITLE "0:"
    INDEX 01 00:22:46
  TRACK 30 AUDIO
    TITLE "17:cjc029_5615"
    INDEX 01 00:23:30
  TRACK 31 AUDIO
    TITLE "0:"
    INDEX 01 00:24:45
  TRACK 32 AUDIO
    TITLE "16:cjc029_5616"
    INDEX 01 00:24:53
  TRACK 33 AUDIO
    TITLE "0:"
    INDEX 01 00:25:60
  TRACK 34 AUDIO
    TITLE "17:cjc029_5617"
    INDEX 01 00:26:48
  TRACK 35 AUDIO
    TITLE "0:"
    INDEX 01 00:28:00
  TRACK 36 AUDIO
    TITLE "16:cjc029_5618"
    INDEX 01 00:28:06
  TRACK 37 AUDIO
    TITLE "0:"
    INDEX 01 00:29:21
  TRACK 38 AUDIO
    TITLE "17:cjc029_5619"
    INDEX 01 00:30:06
  TRACK 39 AUDIO
    TITLE "0:"
    INDEX 01 00:31:31
  TRACK 40 AUDIO
    TITLE "16:cjc029_5620"
    INDEX 01 00:31:35
  TRACK 41 AUDIO
    TITLE "0:"
    INDEX 01 00:32:45
  TRACK 42 AUDIO
    TITLE "17:cjc029_5621"
    INDEX 01 00:33:28
  TRACK 43 AUDIO
    TITLE "0:"
    INDEX 01 00:34:51
  TRACK 44 AUDIO
    TITLE "16:cjc029_5622"
    INDEX 01 00:34:59
  TRACK 45 AUDIO
    TITLE "0:"
    INDEX 01 00:35:66
  TRACK 46 AUDIO
    TITLE "17:cjc029_5623"
    INDEX 01 00:36:50
  TRACK 47 AUDIO
    TITLE "0:"
    INDEX 01 00:40:13
  TRACK 48 AUDIO
    TITLE "16:cjc029_5624"
    INDEX 01 00:40:17
  TRACK 49 AUDIO
    TITLE "0:"
    INDEX 01 00:41:45
  TRACK 50 AUDIO
    TITLE "17:cjc029_5625"
    INDEX 01 00:42:31
  TRACK 51 AUDIO
    TITLE "0:"
    INDEX 01 00:43:48
  TRACK 52 AUDIO
    TITLE "16:cjc029_5626"
    INDEX 01 00:43:56
  TRACK 53 AUDIO
    TITLE "0:"
    INDEX 01 00:44:69
  TRACK 54 AUDIO
    TITLE "17:cjc029_5627"
    INDEX 01 00:45:57
  TRACK 55 AUDIO
    TITLE "0:"
    INDEX 01 00:46:54
  TRACK 56 AUDIO
    TITLE "16:cjc029_5628"
    INDEX 01 00:46:60
  TRACK 57 AUDIO
    TITLE "0:"
    INDEX 01 00:48:16
  TRACK 58 AUDIO
    TITLE "17:cjc029_5629"
    INDEX 01 00:49:02
  TRACK 59 AUDIO
    TITLE "0:"
    INDEX 01 00:50:31
  TRACK 60 AUDIO
    TITLE "16:cjc029_5630"
    INDEX 01 00:50:35
  TRACK 61 AUDIO
    TITLE "0:"
    INDEX 01 00:51:62
  TRACK 62 AUDIO
    TITLE "17:cjc029_5631"
    INDEX 01 00:52:47
  TRACK 63 AUDIO
    TITLE "0:"
    INDEX 01 00:55:18
  TRACK 64 AUDIO
    TITLE "16:cjc029_5632"
    INDEX 01 00:55:24
  TRACK 65 AUDIO
    TITLE "0:"
    INDEX 01 00:56:55
